<mxfile host="app.diagrams.net" agent="Mozilla/5.0 (Windows NT 10.0; Win64; x64) AppleWebKit/537.36 (KHTML, like Gecko) Chrome/134.0.0.0 Safari/537.36" version="26.1.0">
  <diagram id="C5RBs43oDa-KdzZeNtuy" name="Page-1">
    <mxGraphModel dx="2825" dy="1576" grid="1" gridSize="10" guides="1" tooltips="1" connect="1" arrows="1" fold="1" page="1" pageScale="1" pageWidth="827" pageHeight="1169" math="0" shadow="0">
      <root>
        <mxCell id="WIyWlLk6GJQsqaUBKTNV-0" />
        <mxCell id="WIyWlLk6GJQsqaUBKTNV-1" parent="WIyWlLk6GJQsqaUBKTNV-0" />
        <mxCell id="zkfFHV4jXpPFQw0GAbJ--0" value="MainCharacter" style="swimlane;fontStyle=2;align=center;verticalAlign=top;childLayout=stackLayout;horizontal=1;startSize=26;horizontalStack=0;resizeParent=1;resizeLast=0;collapsible=1;marginBottom=0;rounded=0;shadow=0;strokeWidth=1;" parent="WIyWlLk6GJQsqaUBKTNV-1" vertex="1">
          <mxGeometry x="230" y="110" width="160" height="320" as="geometry">
            <mxRectangle x="230" y="140" width="160" height="26" as="alternateBounds" />
          </mxGeometry>
        </mxCell>
        <mxCell id="zkfFHV4jXpPFQw0GAbJ--1" value="speed&#xa;" style="text;align=left;verticalAlign=top;spacingLeft=4;spacingRight=4;overflow=hidden;rotatable=0;points=[[0,0.5],[1,0.5]];portConstraint=eastwest;" parent="zkfFHV4jXpPFQw0GAbJ--0" vertex="1">
          <mxGeometry y="26" width="160" height="26" as="geometry" />
        </mxCell>
        <mxCell id="zkfFHV4jXpPFQw0GAbJ--2" value="hp" style="text;align=left;verticalAlign=top;spacingLeft=4;spacingRight=4;overflow=hidden;rotatable=0;points=[[0,0.5],[1,0.5]];portConstraint=eastwest;rounded=0;shadow=0;html=0;" parent="zkfFHV4jXpPFQw0GAbJ--0" vertex="1">
          <mxGeometry y="52" width="160" height="26" as="geometry" />
        </mxCell>
        <mxCell id="zkfFHV4jXpPFQw0GAbJ--3" value="dmg&#xa;" style="text;align=left;verticalAlign=top;spacingLeft=4;spacingRight=4;overflow=hidden;rotatable=0;points=[[0,0.5],[1,0.5]];portConstraint=eastwest;rounded=0;shadow=0;html=0;" parent="zkfFHV4jXpPFQw0GAbJ--0" vertex="1">
          <mxGeometry y="78" width="160" height="26" as="geometry" />
        </mxCell>
        <mxCell id="N3ArxVO0G3h0Xi9gSyZn-0" value="exp" style="text;align=left;verticalAlign=top;spacingLeft=4;spacingRight=4;overflow=hidden;rotatable=0;points=[[0,0.5],[1,0.5]];portConstraint=eastwest;rounded=0;shadow=0;html=0;" vertex="1" parent="zkfFHV4jXpPFQw0GAbJ--0">
          <mxGeometry y="104" width="160" height="26" as="geometry" />
        </mxCell>
        <mxCell id="N3ArxVO0G3h0Xi9gSyZn-1" value="gold" style="text;align=left;verticalAlign=top;spacingLeft=4;spacingRight=4;overflow=hidden;rotatable=0;points=[[0,0.5],[1,0.5]];portConstraint=eastwest;rounded=0;shadow=0;html=0;fillColor=#fff2cc;strokeColor=#d6b656;" vertex="1" parent="zkfFHV4jXpPFQw0GAbJ--0">
          <mxGeometry y="130" width="160" height="26" as="geometry" />
        </mxCell>
        <mxCell id="zkfFHV4jXpPFQw0GAbJ--4" value="" style="line;html=1;strokeWidth=1;align=left;verticalAlign=middle;spacingTop=-1;spacingLeft=3;spacingRight=3;rotatable=0;labelPosition=right;points=[];portConstraint=eastwest;" parent="zkfFHV4jXpPFQw0GAbJ--0" vertex="1">
          <mxGeometry y="156" width="160" height="24" as="geometry" />
        </mxCell>
        <mxCell id="N3ArxVO0G3h0Xi9gSyZn-2" value="Se Déplacer" style="text;align=left;verticalAlign=top;spacingLeft=4;spacingRight=4;overflow=hidden;rotatable=0;points=[[0,0.5],[1,0.5]];portConstraint=eastwest;rounded=0;shadow=0;html=0;fillColor=#f8cecc;strokeColor=#b85450;" vertex="1" parent="zkfFHV4jXpPFQw0GAbJ--0">
          <mxGeometry y="180" width="160" height="26" as="geometry" />
        </mxCell>
        <mxCell id="N3ArxVO0G3h0Xi9gSyZn-3" value="Attaquer" style="text;align=left;verticalAlign=top;spacingLeft=4;spacingRight=4;overflow=hidden;rotatable=0;points=[[0,0.5],[1,0.5]];portConstraint=eastwest;rounded=0;shadow=0;html=0;fillColor=#f8cecc;strokeColor=#b85450;" vertex="1" parent="zkfFHV4jXpPFQw0GAbJ--0">
          <mxGeometry y="206" width="160" height="26" as="geometry" />
        </mxCell>
        <mxCell id="N3ArxVO0G3h0Xi9gSyZn-4" value="Miner" style="text;align=left;verticalAlign=top;spacingLeft=4;spacingRight=4;overflow=hidden;rotatable=0;points=[[0,0.5],[1,0.5]];portConstraint=eastwest;rounded=0;shadow=0;html=0;fillColor=#f8cecc;strokeColor=#b85450;" vertex="1" parent="zkfFHV4jXpPFQw0GAbJ--0">
          <mxGeometry y="232" width="160" height="26" as="geometry" />
        </mxCell>
        <mxCell id="N3ArxVO0G3h0Xi9gSyZn-5" value="Récolter&#xa;" style="text;align=left;verticalAlign=top;spacingLeft=4;spacingRight=4;overflow=hidden;rotatable=0;points=[[0,0.5],[1,0.5]];portConstraint=eastwest;rounded=0;shadow=0;html=0;fillColor=#f8cecc;strokeColor=#b85450;" vertex="1" parent="zkfFHV4jXpPFQw0GAbJ--0">
          <mxGeometry y="258" width="160" height="26" as="geometry" />
        </mxCell>
        <mxCell id="N3ArxVO0G3h0Xi9gSyZn-73" value="Mourir" style="text;align=left;verticalAlign=top;spacingLeft=4;spacingRight=4;overflow=hidden;rotatable=0;points=[[0,0.5],[1,0.5]];portConstraint=eastwest;rounded=0;shadow=0;html=0;fillColor=#f8cecc;strokeColor=#b85450;" vertex="1" parent="zkfFHV4jXpPFQw0GAbJ--0">
          <mxGeometry y="284" width="160" height="26" as="geometry" />
        </mxCell>
        <mxCell id="N3ArxVO0G3h0Xi9gSyZn-35" style="edgeStyle=orthogonalEdgeStyle;rounded=0;orthogonalLoop=1;jettySize=auto;html=1;entryX=0;entryY=0.5;entryDx=0;entryDy=0;" edge="1" parent="WIyWlLk6GJQsqaUBKTNV-1" source="N3ArxVO0G3h0Xi9gSyZn-6" target="N3ArxVO0G3h0Xi9gSyZn-2">
          <mxGeometry relative="1" as="geometry" />
        </mxCell>
        <mxCell id="N3ArxVO0G3h0Xi9gSyZn-6" value="Déplacement" style="swimlane;fontStyle=2;align=center;verticalAlign=top;childLayout=stackLayout;horizontal=1;startSize=26;horizontalStack=0;resizeParent=1;resizeLast=0;collapsible=1;marginBottom=0;rounded=0;shadow=0;strokeWidth=1;fillColor=#f8cecc;strokeColor=#b85450;" vertex="1" parent="WIyWlLk6GJQsqaUBKTNV-1">
          <mxGeometry x="-190" y="421" width="160" height="170" as="geometry">
            <mxRectangle x="230" y="140" width="160" height="26" as="alternateBounds" />
          </mxGeometry>
        </mxCell>
        <mxCell id="N3ArxVO0G3h0Xi9gSyZn-9" value="Déplacements sur 8 axes" style="text;align=left;verticalAlign=top;spacingLeft=4;spacingRight=4;overflow=hidden;rotatable=0;points=[[0,0.5],[1,0.5]];portConstraint=eastwest;rounded=0;shadow=0;html=0;" vertex="1" parent="N3ArxVO0G3h0Xi9gSyZn-6">
          <mxGeometry y="26" width="160" height="26" as="geometry" />
        </mxCell>
        <mxCell id="N3ArxVO0G3h0Xi9gSyZn-10" value="Accélération ?" style="text;align=left;verticalAlign=top;spacingLeft=4;spacingRight=4;overflow=hidden;rotatable=0;points=[[0,0.5],[1,0.5]];portConstraint=eastwest;rounded=0;shadow=0;html=0;" vertex="1" parent="N3ArxVO0G3h0Xi9gSyZn-6">
          <mxGeometry y="52" width="160" height="26" as="geometry" />
        </mxCell>
        <mxCell id="N3ArxVO0G3h0Xi9gSyZn-11" value="Ralentissement selon le &#xa;nombre d&#39;objet dans &#xa;l&#39;inventaire" style="text;align=left;verticalAlign=top;spacingLeft=4;spacingRight=4;overflow=hidden;rotatable=0;points=[[0,0.5],[1,0.5]];portConstraint=eastwest;rounded=0;shadow=0;html=0;" vertex="1" parent="N3ArxVO0G3h0Xi9gSyZn-6">
          <mxGeometry y="78" width="160" height="52" as="geometry" />
        </mxCell>
        <mxCell id="N3ArxVO0G3h0Xi9gSyZn-17" value="Nage ou escalade selon&#xa;l&#39;environnement" style="text;align=left;verticalAlign=top;spacingLeft=4;spacingRight=4;overflow=hidden;rotatable=0;points=[[0,0.5],[1,0.5]];portConstraint=eastwest;rounded=0;shadow=0;html=0;" vertex="1" parent="N3ArxVO0G3h0Xi9gSyZn-6">
          <mxGeometry y="130" width="160" height="40" as="geometry" />
        </mxCell>
        <mxCell id="N3ArxVO0G3h0Xi9gSyZn-34" style="edgeStyle=orthogonalEdgeStyle;rounded=0;orthogonalLoop=1;jettySize=auto;html=1;entryX=0;entryY=0.5;entryDx=0;entryDy=0;" edge="1" parent="WIyWlLk6GJQsqaUBKTNV-1" source="N3ArxVO0G3h0Xi9gSyZn-18" target="N3ArxVO0G3h0Xi9gSyZn-3">
          <mxGeometry relative="1" as="geometry" />
        </mxCell>
        <mxCell id="N3ArxVO0G3h0Xi9gSyZn-18" value="Attaques" style="swimlane;fontStyle=2;align=center;verticalAlign=top;childLayout=stackLayout;horizontal=1;startSize=26;horizontalStack=0;resizeParent=1;resizeLast=0;collapsible=1;marginBottom=0;rounded=0;shadow=0;strokeWidth=1;fillColor=#f8cecc;strokeColor=#b85450;" vertex="1" parent="WIyWlLk6GJQsqaUBKTNV-1">
          <mxGeometry x="-20" y="420" width="170" height="172" as="geometry">
            <mxRectangle x="230" y="140" width="160" height="26" as="alternateBounds" />
          </mxGeometry>
        </mxCell>
        <mxCell id="N3ArxVO0G3h0Xi9gSyZn-19" value="Attaques sur 8 axes" style="text;align=left;verticalAlign=top;spacingLeft=4;spacingRight=4;overflow=hidden;rotatable=0;points=[[0,0.5],[1,0.5]];portConstraint=eastwest;rounded=0;shadow=0;html=0;" vertex="1" parent="N3ArxVO0G3h0Xi9gSyZn-18">
          <mxGeometry y="26" width="170" height="26" as="geometry" />
        </mxCell>
        <mxCell id="N3ArxVO0G3h0Xi9gSyZn-20" value="Plusieurs façons d&#39;attaquer ?" style="text;align=left;verticalAlign=top;spacingLeft=4;spacingRight=4;overflow=hidden;rotatable=0;points=[[0,0.5],[1,0.5]];portConstraint=eastwest;rounded=0;shadow=0;html=0;" vertex="1" parent="N3ArxVO0G3h0Xi9gSyZn-18">
          <mxGeometry y="52" width="170" height="28" as="geometry" />
        </mxCell>
        <mxCell id="N3ArxVO0G3h0Xi9gSyZn-21" value="Plusieurs armes ?" style="text;align=left;verticalAlign=top;spacingLeft=4;spacingRight=4;overflow=hidden;rotatable=0;points=[[0,0.5],[1,0.5]];portConstraint=eastwest;rounded=0;shadow=0;html=0;" vertex="1" parent="N3ArxVO0G3h0Xi9gSyZn-18">
          <mxGeometry y="80" width="170" height="30" as="geometry" />
        </mxCell>
        <mxCell id="N3ArxVO0G3h0Xi9gSyZn-22" value="Attaquer en utilisant &#xa;l&#39;environnement ?" style="text;align=left;verticalAlign=top;spacingLeft=4;spacingRight=4;overflow=hidden;rotatable=0;points=[[0,0.5],[1,0.5]];portConstraint=eastwest;rounded=0;shadow=0;html=0;" vertex="1" parent="N3ArxVO0G3h0Xi9gSyZn-18">
          <mxGeometry y="110" width="170" height="40" as="geometry" />
        </mxCell>
        <mxCell id="N3ArxVO0G3h0Xi9gSyZn-33" style="edgeStyle=orthogonalEdgeStyle;rounded=0;orthogonalLoop=1;jettySize=auto;html=1;entryX=0;entryY=0.5;entryDx=0;entryDy=0;" edge="1" parent="WIyWlLk6GJQsqaUBKTNV-1" source="N3ArxVO0G3h0Xi9gSyZn-23" target="N3ArxVO0G3h0Xi9gSyZn-4">
          <mxGeometry relative="1" as="geometry" />
        </mxCell>
        <mxCell id="N3ArxVO0G3h0Xi9gSyZn-43" style="edgeStyle=orthogonalEdgeStyle;rounded=0;orthogonalLoop=1;jettySize=auto;html=1;" edge="1" parent="WIyWlLk6GJQsqaUBKTNV-1" source="N3ArxVO0G3h0Xi9gSyZn-23">
          <mxGeometry relative="1" as="geometry">
            <mxPoint x="530" y="100" as="targetPoint" />
            <Array as="points">
              <mxPoint x="45" y="60" />
              <mxPoint x="531" y="60" />
            </Array>
          </mxGeometry>
        </mxCell>
        <mxCell id="N3ArxVO0G3h0Xi9gSyZn-23" value="Miner" style="swimlane;fontStyle=2;align=center;verticalAlign=top;childLayout=stackLayout;horizontal=1;startSize=26;horizontalStack=0;resizeParent=1;resizeLast=0;collapsible=1;marginBottom=0;rounded=0;shadow=0;strokeWidth=1;fillColor=#f8cecc;strokeColor=#b85450;" vertex="1" parent="WIyWlLk6GJQsqaUBKTNV-1">
          <mxGeometry x="-40" y="140" width="170" height="130" as="geometry">
            <mxRectangle x="230" y="140" width="160" height="26" as="alternateBounds" />
          </mxGeometry>
        </mxCell>
        <mxCell id="N3ArxVO0G3h0Xi9gSyZn-24" value="Minage sur 4 ou 8 axes ?&#xa;" style="text;align=left;verticalAlign=top;spacingLeft=4;spacingRight=4;overflow=hidden;rotatable=0;points=[[0,0.5],[1,0.5]];portConstraint=eastwest;rounded=0;shadow=0;html=0;" vertex="1" parent="N3ArxVO0G3h0Xi9gSyZn-23">
          <mxGeometry y="26" width="170" height="44" as="geometry" />
        </mxCell>
        <mxCell id="N3ArxVO0G3h0Xi9gSyZn-29" value="Vitesse de minage selon le &#xa;minerai et selon la pioche " style="text;align=left;verticalAlign=top;spacingLeft=4;spacingRight=4;overflow=hidden;rotatable=0;points=[[0,0.5],[1,0.5]];portConstraint=eastwest;rounded=0;shadow=0;html=0;" vertex="1" parent="N3ArxVO0G3h0Xi9gSyZn-23">
          <mxGeometry y="70" width="170" height="44" as="geometry" />
        </mxCell>
        <mxCell id="N3ArxVO0G3h0Xi9gSyZn-36" style="edgeStyle=orthogonalEdgeStyle;rounded=0;orthogonalLoop=1;jettySize=auto;html=1;" edge="1" parent="WIyWlLk6GJQsqaUBKTNV-1" source="N3ArxVO0G3h0Xi9gSyZn-30" target="N3ArxVO0G3h0Xi9gSyZn-5">
          <mxGeometry relative="1" as="geometry" />
        </mxCell>
        <mxCell id="N3ArxVO0G3h0Xi9gSyZn-42" style="edgeStyle=orthogonalEdgeStyle;rounded=0;orthogonalLoop=1;jettySize=auto;html=1;" edge="1" parent="WIyWlLk6GJQsqaUBKTNV-1" source="N3ArxVO0G3h0Xi9gSyZn-30">
          <mxGeometry relative="1" as="geometry">
            <mxPoint x="530" y="100" as="targetPoint" />
            <Array as="points">
              <mxPoint x="-135" y="60" />
              <mxPoint x="531" y="60" />
            </Array>
          </mxGeometry>
        </mxCell>
        <mxCell id="N3ArxVO0G3h0Xi9gSyZn-30" value="Récolter" style="swimlane;fontStyle=2;align=center;verticalAlign=top;childLayout=stackLayout;horizontal=1;startSize=26;horizontalStack=0;resizeParent=1;resizeLast=0;collapsible=1;marginBottom=0;rounded=0;shadow=0;strokeWidth=1;fillColor=#f8cecc;strokeColor=#b85450;" vertex="1" parent="WIyWlLk6GJQsqaUBKTNV-1">
          <mxGeometry x="-220" y="140" width="170" height="130" as="geometry">
            <mxRectangle x="230" y="140" width="160" height="26" as="alternateBounds" />
          </mxGeometry>
        </mxCell>
        <mxCell id="N3ArxVO0G3h0Xi9gSyZn-31" value="Ramasser les minerais et &#xa;les objets au sol" style="text;align=left;verticalAlign=top;spacingLeft=4;spacingRight=4;overflow=hidden;rotatable=0;points=[[0,0.5],[1,0.5]];portConstraint=eastwest;rounded=0;shadow=0;html=0;" vertex="1" parent="N3ArxVO0G3h0Xi9gSyZn-30">
          <mxGeometry y="26" width="170" height="44" as="geometry" />
        </mxCell>
        <mxCell id="N3ArxVO0G3h0Xi9gSyZn-32" value="Dépecer les monstres pour &#xa;récupérer certains matériaux" style="text;align=left;verticalAlign=top;spacingLeft=4;spacingRight=4;overflow=hidden;rotatable=0;points=[[0,0.5],[1,0.5]];portConstraint=eastwest;rounded=0;shadow=0;html=0;" vertex="1" parent="N3ArxVO0G3h0Xi9gSyZn-30">
          <mxGeometry y="70" width="170" height="44" as="geometry" />
        </mxCell>
        <mxCell id="N3ArxVO0G3h0Xi9gSyZn-37" value="Inventaire " style="swimlane;fontStyle=2;align=center;verticalAlign=top;childLayout=stackLayout;horizontal=1;startSize=26;horizontalStack=0;resizeParent=1;resizeLast=0;collapsible=1;marginBottom=0;rounded=0;shadow=0;strokeWidth=1;fillColor=#fff2cc;strokeColor=#d6b656;" vertex="1" parent="WIyWlLk6GJQsqaUBKTNV-1">
          <mxGeometry x="450" y="100" width="170" height="220" as="geometry">
            <mxRectangle x="230" y="140" width="160" height="26" as="alternateBounds" />
          </mxGeometry>
        </mxCell>
        <mxCell id="N3ArxVO0G3h0Xi9gSyZn-38" value="Inventaire limité &#xa;(slot ou poids max)" style="text;align=left;verticalAlign=top;spacingLeft=4;spacingRight=4;overflow=hidden;rotatable=0;points=[[0,0.5],[1,0.5]];portConstraint=eastwest;rounded=0;shadow=0;html=0;" vertex="1" parent="N3ArxVO0G3h0Xi9gSyZn-37">
          <mxGeometry y="26" width="170" height="34" as="geometry" />
        </mxCell>
        <mxCell id="N3ArxVO0G3h0Xi9gSyZn-39" value="Possibilité d&#39;y accéder tout le &#xa;temps ?" style="text;align=left;verticalAlign=top;spacingLeft=4;spacingRight=4;overflow=hidden;rotatable=0;points=[[0,0.5],[1,0.5]];portConstraint=eastwest;rounded=0;shadow=0;html=0;" vertex="1" parent="N3ArxVO0G3h0Xi9gSyZn-37">
          <mxGeometry y="60" width="170" height="38" as="geometry" />
        </mxCell>
        <mxCell id="N3ArxVO0G3h0Xi9gSyZn-45" value="Possibilité de stacker les &#xa;éléments" style="text;align=left;verticalAlign=top;spacingLeft=4;spacingRight=4;overflow=hidden;rotatable=0;points=[[0,0.5],[1,0.5]];portConstraint=eastwest;rounded=0;shadow=0;html=0;" vertex="1" parent="N3ArxVO0G3h0Xi9gSyZn-37">
          <mxGeometry y="98" width="170" height="38" as="geometry" />
        </mxCell>
        <mxCell id="N3ArxVO0G3h0Xi9gSyZn-46" value="Pouvoir vider son inventaire &#xa;dans un coffre" style="text;align=left;verticalAlign=top;spacingLeft=4;spacingRight=4;overflow=hidden;rotatable=0;points=[[0,0.5],[1,0.5]];portConstraint=eastwest;rounded=0;shadow=0;html=0;" vertex="1" parent="N3ArxVO0G3h0Xi9gSyZn-37">
          <mxGeometry y="136" width="170" height="38" as="geometry" />
        </mxCell>
        <mxCell id="N3ArxVO0G3h0Xi9gSyZn-47" value="Monsters" style="swimlane;fontStyle=2;align=center;verticalAlign=top;childLayout=stackLayout;horizontal=1;startSize=26;horizontalStack=0;resizeParent=1;resizeLast=0;collapsible=1;marginBottom=0;rounded=0;shadow=0;strokeWidth=1;fillColor=#ffe6cc;strokeColor=#d79b00;" vertex="1" parent="WIyWlLk6GJQsqaUBKTNV-1">
          <mxGeometry x="240" y="660" width="160" height="280" as="geometry">
            <mxRectangle x="230" y="140" width="160" height="26" as="alternateBounds" />
          </mxGeometry>
        </mxCell>
        <mxCell id="N3ArxVO0G3h0Xi9gSyZn-48" value="speed selon le monstre" style="text;align=left;verticalAlign=top;spacingLeft=4;spacingRight=4;overflow=hidden;rotatable=0;points=[[0,0.5],[1,0.5]];portConstraint=eastwest;" vertex="1" parent="N3ArxVO0G3h0Xi9gSyZn-47">
          <mxGeometry y="26" width="160" height="26" as="geometry" />
        </mxCell>
        <mxCell id="N3ArxVO0G3h0Xi9gSyZn-49" value="hp selon le monstre" style="text;align=left;verticalAlign=top;spacingLeft=4;spacingRight=4;overflow=hidden;rotatable=0;points=[[0,0.5],[1,0.5]];portConstraint=eastwest;rounded=0;shadow=0;html=0;" vertex="1" parent="N3ArxVO0G3h0Xi9gSyZn-47">
          <mxGeometry y="52" width="160" height="26" as="geometry" />
        </mxCell>
        <mxCell id="N3ArxVO0G3h0Xi9gSyZn-50" value="dmg selon le monstre" style="text;align=left;verticalAlign=top;spacingLeft=4;spacingRight=4;overflow=hidden;rotatable=0;points=[[0,0.5],[1,0.5]];portConstraint=eastwest;rounded=0;shadow=0;html=0;" vertex="1" parent="N3ArxVO0G3h0Xi9gSyZn-47">
          <mxGeometry y="78" width="160" height="26" as="geometry" />
        </mxCell>
        <mxCell id="N3ArxVO0G3h0Xi9gSyZn-58" value="drop exp selon le monstre" style="text;align=left;verticalAlign=top;spacingLeft=4;spacingRight=4;overflow=hidden;rotatable=0;points=[[0,0.5],[1,0.5]];portConstraint=eastwest;rounded=0;shadow=0;html=0;" vertex="1" parent="N3ArxVO0G3h0Xi9gSyZn-47">
          <mxGeometry y="104" width="160" height="26" as="geometry" />
        </mxCell>
        <mxCell id="N3ArxVO0G3h0Xi9gSyZn-59" value="drop matériaux selon le &#xa;monstre" style="text;align=left;verticalAlign=top;spacingLeft=4;spacingRight=4;overflow=hidden;rotatable=0;points=[[0,0.5],[1,0.5]];portConstraint=eastwest;rounded=0;shadow=0;html=0;" vertex="1" parent="N3ArxVO0G3h0Xi9gSyZn-47">
          <mxGeometry y="130" width="160" height="40" as="geometry" />
        </mxCell>
        <mxCell id="N3ArxVO0G3h0Xi9gSyZn-53" value="" style="line;html=1;strokeWidth=1;align=left;verticalAlign=middle;spacingTop=-1;spacingLeft=3;spacingRight=3;rotatable=0;labelPosition=right;points=[];portConstraint=eastwest;" vertex="1" parent="N3ArxVO0G3h0Xi9gSyZn-47">
          <mxGeometry y="170" width="160" height="24" as="geometry" />
        </mxCell>
        <mxCell id="N3ArxVO0G3h0Xi9gSyZn-54" value="Se Déplacer" style="text;align=left;verticalAlign=top;spacingLeft=4;spacingRight=4;overflow=hidden;rotatable=0;points=[[0,0.5],[1,0.5]];portConstraint=eastwest;rounded=0;shadow=0;html=0;fillColor=#f8cecc;strokeColor=#b85450;" vertex="1" parent="N3ArxVO0G3h0Xi9gSyZn-47">
          <mxGeometry y="194" width="160" height="26" as="geometry" />
        </mxCell>
        <mxCell id="N3ArxVO0G3h0Xi9gSyZn-55" value="Attaquer" style="text;align=left;verticalAlign=top;spacingLeft=4;spacingRight=4;overflow=hidden;rotatable=0;points=[[0,0.5],[1,0.5]];portConstraint=eastwest;rounded=0;shadow=0;html=0;fillColor=#f8cecc;strokeColor=#b85450;" vertex="1" parent="N3ArxVO0G3h0Xi9gSyZn-47">
          <mxGeometry y="220" width="160" height="26" as="geometry" />
        </mxCell>
        <mxCell id="N3ArxVO0G3h0Xi9gSyZn-60" value="Mourir" style="text;align=left;verticalAlign=top;spacingLeft=4;spacingRight=4;overflow=hidden;rotatable=0;points=[[0,0.5],[1,0.5]];portConstraint=eastwest;rounded=0;shadow=0;html=0;fillColor=#f8cecc;strokeColor=#b85450;" vertex="1" parent="N3ArxVO0G3h0Xi9gSyZn-47">
          <mxGeometry y="246" width="160" height="26" as="geometry" />
        </mxCell>
        <mxCell id="N3ArxVO0G3h0Xi9gSyZn-71" style="edgeStyle=orthogonalEdgeStyle;rounded=0;orthogonalLoop=1;jettySize=auto;html=1;entryX=0;entryY=0.5;entryDx=0;entryDy=0;" edge="1" parent="WIyWlLk6GJQsqaUBKTNV-1" source="N3ArxVO0G3h0Xi9gSyZn-61" target="N3ArxVO0G3h0Xi9gSyZn-55">
          <mxGeometry relative="1" as="geometry" />
        </mxCell>
        <mxCell id="N3ArxVO0G3h0Xi9gSyZn-61" value="Attaques" style="swimlane;fontStyle=2;align=center;verticalAlign=top;childLayout=stackLayout;horizontal=1;startSize=26;horizontalStack=0;resizeParent=1;resizeLast=0;collapsible=1;marginBottom=0;rounded=0;shadow=0;strokeWidth=1;fillColor=#f8cecc;strokeColor=#b85450;" vertex="1" parent="WIyWlLk6GJQsqaUBKTNV-1">
          <mxGeometry x="30" y="740" width="170" height="100" as="geometry">
            <mxRectangle x="230" y="140" width="160" height="26" as="alternateBounds" />
          </mxGeometry>
        </mxCell>
        <mxCell id="N3ArxVO0G3h0Xi9gSyZn-62" value="Attaques sur 8 axes" style="text;align=left;verticalAlign=top;spacingLeft=4;spacingRight=4;overflow=hidden;rotatable=0;points=[[0,0.5],[1,0.5]];portConstraint=eastwest;rounded=0;shadow=0;html=0;" vertex="1" parent="N3ArxVO0G3h0Xi9gSyZn-61">
          <mxGeometry y="26" width="170" height="26" as="geometry" />
        </mxCell>
        <mxCell id="N3ArxVO0G3h0Xi9gSyZn-63" value="1 manière d&#39;attaquer par &#xa;monstre" style="text;align=left;verticalAlign=top;spacingLeft=4;spacingRight=4;overflow=hidden;rotatable=0;points=[[0,0.5],[1,0.5]];portConstraint=eastwest;rounded=0;shadow=0;html=0;" vertex="1" parent="N3ArxVO0G3h0Xi9gSyZn-61">
          <mxGeometry y="52" width="170" height="38" as="geometry" />
        </mxCell>
        <mxCell id="N3ArxVO0G3h0Xi9gSyZn-72" style="edgeStyle=orthogonalEdgeStyle;rounded=0;orthogonalLoop=1;jettySize=auto;html=1;entryX=0;entryY=0.5;entryDx=0;entryDy=0;" edge="1" parent="WIyWlLk6GJQsqaUBKTNV-1" source="N3ArxVO0G3h0Xi9gSyZn-66" target="N3ArxVO0G3h0Xi9gSyZn-54">
          <mxGeometry relative="1" as="geometry" />
        </mxCell>
        <mxCell id="N3ArxVO0G3h0Xi9gSyZn-66" value="Déplacement" style="swimlane;fontStyle=2;align=center;verticalAlign=top;childLayout=stackLayout;horizontal=1;startSize=26;horizontalStack=0;resizeParent=1;resizeLast=0;collapsible=1;marginBottom=0;rounded=0;shadow=0;strokeWidth=1;fillColor=#f8cecc;strokeColor=#b85450;" vertex="1" parent="WIyWlLk6GJQsqaUBKTNV-1">
          <mxGeometry x="-160" y="740" width="160" height="100" as="geometry">
            <mxRectangle x="230" y="140" width="160" height="26" as="alternateBounds" />
          </mxGeometry>
        </mxCell>
        <mxCell id="N3ArxVO0G3h0Xi9gSyZn-67" value="Déplacements sur 8 axes" style="text;align=left;verticalAlign=top;spacingLeft=4;spacingRight=4;overflow=hidden;rotatable=0;points=[[0,0.5],[1,0.5]];portConstraint=eastwest;rounded=0;shadow=0;html=0;" vertex="1" parent="N3ArxVO0G3h0Xi9gSyZn-66">
          <mxGeometry y="26" width="160" height="26" as="geometry" />
        </mxCell>
        <mxCell id="N3ArxVO0G3h0Xi9gSyZn-68" value="Comportement selon le &#xa;monstre" style="text;align=left;verticalAlign=top;spacingLeft=4;spacingRight=4;overflow=hidden;rotatable=0;points=[[0,0.5],[1,0.5]];portConstraint=eastwest;rounded=0;shadow=0;html=0;" vertex="1" parent="N3ArxVO0G3h0Xi9gSyZn-66">
          <mxGeometry y="52" width="160" height="38" as="geometry" />
        </mxCell>
        <mxCell id="N3ArxVO0G3h0Xi9gSyZn-78" style="edgeStyle=orthogonalEdgeStyle;rounded=0;orthogonalLoop=1;jettySize=auto;html=1;entryX=0;entryY=0.5;entryDx=0;entryDy=0;" edge="1" parent="WIyWlLk6GJQsqaUBKTNV-1" source="N3ArxVO0G3h0Xi9gSyZn-74" target="N3ArxVO0G3h0Xi9gSyZn-60">
          <mxGeometry relative="1" as="geometry">
            <Array as="points">
              <mxPoint x="-80" y="890" />
              <mxPoint x="100" y="890" />
              <mxPoint x="100" y="919" />
            </Array>
          </mxGeometry>
        </mxCell>
        <mxCell id="N3ArxVO0G3h0Xi9gSyZn-74" value="Mourir" style="swimlane;fontStyle=2;align=center;verticalAlign=top;childLayout=stackLayout;horizontal=1;startSize=26;horizontalStack=0;resizeParent=1;resizeLast=0;collapsible=1;marginBottom=0;rounded=0;shadow=0;strokeWidth=1;fillColor=#f8cecc;strokeColor=#b85450;" vertex="1" parent="WIyWlLk6GJQsqaUBKTNV-1">
          <mxGeometry x="-160" y="906" width="160" height="90" as="geometry">
            <mxRectangle x="230" y="140" width="160" height="26" as="alternateBounds" />
          </mxGeometry>
        </mxCell>
        <mxCell id="N3ArxVO0G3h0Xi9gSyZn-75" value="Apparition d&#39;un cadavre" style="text;align=left;verticalAlign=top;spacingLeft=4;spacingRight=4;overflow=hidden;rotatable=0;points=[[0,0.5],[1,0.5]];portConstraint=eastwest;rounded=0;shadow=0;html=0;" vertex="1" parent="N3ArxVO0G3h0Xi9gSyZn-74">
          <mxGeometry y="26" width="160" height="26" as="geometry" />
        </mxCell>
        <mxCell id="N3ArxVO0G3h0Xi9gSyZn-77" value="Drop d&#39;exp au joueur" style="text;align=left;verticalAlign=top;spacingLeft=4;spacingRight=4;overflow=hidden;rotatable=0;points=[[0,0.5],[1,0.5]];portConstraint=eastwest;rounded=0;shadow=0;html=0;" vertex="1" parent="N3ArxVO0G3h0Xi9gSyZn-74">
          <mxGeometry y="52" width="160" height="26" as="geometry" />
        </mxCell>
        <mxCell id="N3ArxVO0G3h0Xi9gSyZn-79" value="Cadavre" style="swimlane;fontStyle=2;align=center;verticalAlign=top;childLayout=stackLayout;horizontal=1;startSize=26;horizontalStack=0;resizeParent=1;resizeLast=0;collapsible=1;marginBottom=0;rounded=0;shadow=0;strokeWidth=1;" vertex="1" parent="WIyWlLk6GJQsqaUBKTNV-1">
          <mxGeometry x="35" y="932" width="175" height="100" as="geometry">
            <mxRectangle x="230" y="140" width="160" height="26" as="alternateBounds" />
          </mxGeometry>
        </mxCell>
        <mxCell id="N3ArxVO0G3h0Xi9gSyZn-80" value="Dépecer la cadavre le fera &#xa;disparaître" style="text;align=left;verticalAlign=top;spacingLeft=4;spacingRight=4;overflow=hidden;rotatable=0;points=[[0,0.5],[1,0.5]];portConstraint=eastwest;rounded=0;shadow=0;html=0;" vertex="1" parent="N3ArxVO0G3h0Xi9gSyZn-79">
          <mxGeometry y="26" width="175" height="44" as="geometry" />
        </mxCell>
        <mxCell id="N3ArxVO0G3h0Xi9gSyZn-81" value="Drop des matériaux au joueur" style="text;align=left;verticalAlign=top;spacingLeft=4;spacingRight=4;overflow=hidden;rotatable=0;points=[[0,0.5],[1,0.5]];portConstraint=eastwest;rounded=0;shadow=0;html=0;" vertex="1" parent="N3ArxVO0G3h0Xi9gSyZn-79">
          <mxGeometry y="70" width="175" height="26" as="geometry" />
        </mxCell>
        <mxCell id="N3ArxVO0G3h0Xi9gSyZn-83" style="edgeStyle=orthogonalEdgeStyle;rounded=0;orthogonalLoop=1;jettySize=auto;html=1;entryX=0.021;entryY=0.138;entryDx=0;entryDy=0;entryPerimeter=0;" edge="1" parent="WIyWlLk6GJQsqaUBKTNV-1" source="N3ArxVO0G3h0Xi9gSyZn-75" target="N3ArxVO0G3h0Xi9gSyZn-79">
          <mxGeometry relative="1" as="geometry" />
        </mxCell>
        <mxCell id="N3ArxVO0G3h0Xi9gSyZn-88" style="edgeStyle=orthogonalEdgeStyle;rounded=0;orthogonalLoop=1;jettySize=auto;html=1;entryX=0;entryY=0.5;entryDx=0;entryDy=0;" edge="1" parent="WIyWlLk6GJQsqaUBKTNV-1" source="N3ArxVO0G3h0Xi9gSyZn-84" target="N3ArxVO0G3h0Xi9gSyZn-73">
          <mxGeometry relative="1" as="geometry">
            <Array as="points">
              <mxPoint x="-295" y="407" />
            </Array>
          </mxGeometry>
        </mxCell>
        <mxCell id="N3ArxVO0G3h0Xi9gSyZn-84" value="Mourir" style="swimlane;fontStyle=2;align=center;verticalAlign=top;childLayout=stackLayout;horizontal=1;startSize=26;horizontalStack=0;resizeParent=1;resizeLast=0;collapsible=1;marginBottom=0;rounded=0;shadow=0;strokeWidth=1;fillColor=#f8cecc;strokeColor=#b85450;" vertex="1" parent="WIyWlLk6GJQsqaUBKTNV-1">
          <mxGeometry x="-380" y="420" width="170" height="90" as="geometry">
            <mxRectangle x="230" y="140" width="160" height="26" as="alternateBounds" />
          </mxGeometry>
        </mxCell>
        <mxCell id="N3ArxVO0G3h0Xi9gSyZn-85" value="Pert définitive de l&#39;inventaire" style="text;align=left;verticalAlign=top;spacingLeft=4;spacingRight=4;overflow=hidden;rotatable=0;points=[[0,0.5],[1,0.5]];portConstraint=eastwest;rounded=0;shadow=0;html=0;" vertex="1" parent="N3ArxVO0G3h0Xi9gSyZn-84">
          <mxGeometry y="26" width="170" height="26" as="geometry" />
        </mxCell>
        <mxCell id="N3ArxVO0G3h0Xi9gSyZn-87" value="Réapparition a un checkpoint " style="text;align=left;verticalAlign=top;spacingLeft=4;spacingRight=4;overflow=hidden;rotatable=0;points=[[0,0.5],[1,0.5]];portConstraint=eastwest;rounded=0;shadow=0;html=0;" vertex="1" parent="N3ArxVO0G3h0Xi9gSyZn-84">
          <mxGeometry y="52" width="170" height="26" as="geometry" />
        </mxCell>
        <mxCell id="N3ArxVO0G3h0Xi9gSyZn-89" value="Merchant" style="swimlane;fontStyle=2;align=center;verticalAlign=top;childLayout=stackLayout;horizontal=1;startSize=26;horizontalStack=0;resizeParent=1;resizeLast=0;collapsible=1;marginBottom=0;rounded=0;shadow=0;strokeWidth=1;fillColor=#f5f5f5;fontColor=#333333;strokeColor=#666666;" vertex="1" parent="WIyWlLk6GJQsqaUBKTNV-1">
          <mxGeometry x="750" y="110" width="160" height="188" as="geometry">
            <mxRectangle x="230" y="140" width="160" height="26" as="alternateBounds" />
          </mxGeometry>
        </mxCell>
        <mxCell id="N3ArxVO0G3h0Xi9gSyZn-107" value="Inventaire limité" style="text;align=left;verticalAlign=top;spacingLeft=4;spacingRight=4;overflow=hidden;rotatable=0;points=[[0,0.5],[1,0.5]];portConstraint=eastwest;rounded=0;shadow=0;html=0;" vertex="1" parent="N3ArxVO0G3h0Xi9gSyZn-89">
          <mxGeometry y="26" width="160" height="34" as="geometry" />
        </mxCell>
        <mxCell id="N3ArxVO0G3h0Xi9gSyZn-102" value="" style="line;html=1;strokeWidth=1;align=left;verticalAlign=middle;spacingTop=-1;spacingLeft=3;spacingRight=3;rotatable=0;labelPosition=right;points=[];portConstraint=eastwest;" vertex="1" parent="N3ArxVO0G3h0Xi9gSyZn-89">
          <mxGeometry y="60" width="160" height="24" as="geometry" />
        </mxCell>
        <mxCell id="N3ArxVO0G3h0Xi9gSyZn-103" value="Acheter" style="text;align=left;verticalAlign=top;spacingLeft=4;spacingRight=4;overflow=hidden;rotatable=0;points=[[0,0.5],[1,0.5]];portConstraint=eastwest;rounded=0;shadow=0;html=0;fillColor=#f8cecc;strokeColor=#b85450;" vertex="1" parent="N3ArxVO0G3h0Xi9gSyZn-89">
          <mxGeometry y="84" width="160" height="26" as="geometry" />
        </mxCell>
        <mxCell id="N3ArxVO0G3h0Xi9gSyZn-104" value="Vendre" style="text;align=left;verticalAlign=top;spacingLeft=4;spacingRight=4;overflow=hidden;rotatable=0;points=[[0,0.5],[1,0.5]];portConstraint=eastwest;rounded=0;shadow=0;html=0;fillColor=#f8cecc;strokeColor=#b85450;" vertex="1" parent="N3ArxVO0G3h0Xi9gSyZn-89">
          <mxGeometry y="110" width="160" height="26" as="geometry" />
        </mxCell>
        <mxCell id="N3ArxVO0G3h0Xi9gSyZn-105" value="Améliorer / Mise à Jour" style="text;align=left;verticalAlign=top;spacingLeft=4;spacingRight=4;overflow=hidden;rotatable=0;points=[[0,0.5],[1,0.5]];portConstraint=eastwest;rounded=0;shadow=0;html=0;fillColor=#f8cecc;strokeColor=#b85450;" vertex="1" parent="N3ArxVO0G3h0Xi9gSyZn-89">
          <mxGeometry y="136" width="160" height="26" as="geometry" />
        </mxCell>
        <mxCell id="N3ArxVO0G3h0Xi9gSyZn-121" style="edgeStyle=orthogonalEdgeStyle;rounded=0;orthogonalLoop=1;jettySize=auto;html=1;entryX=1;entryY=0.5;entryDx=0;entryDy=0;fontFamily=Helvetica;fontSize=12;fontColor=default;" edge="1" parent="WIyWlLk6GJQsqaUBKTNV-1" source="N3ArxVO0G3h0Xi9gSyZn-108" target="N3ArxVO0G3h0Xi9gSyZn-103">
          <mxGeometry relative="1" as="geometry" />
        </mxCell>
        <mxCell id="N3ArxVO0G3h0Xi9gSyZn-108" value="Acheter" style="swimlane;fontStyle=2;align=center;verticalAlign=top;childLayout=stackLayout;horizontal=1;startSize=26;horizontalStack=0;resizeParent=1;resizeLast=0;collapsible=1;marginBottom=0;rounded=0;shadow=0;strokeWidth=1;fillColor=#f8cecc;strokeColor=#b85450;" vertex="1" parent="WIyWlLk6GJQsqaUBKTNV-1">
          <mxGeometry x="940" y="280" width="170" height="130" as="geometry">
            <mxRectangle x="230" y="140" width="160" height="26" as="alternateBounds" />
          </mxGeometry>
        </mxCell>
        <mxCell id="N3ArxVO0G3h0Xi9gSyZn-109" value="achat unique ou par lot" style="text;align=left;verticalAlign=top;spacingLeft=4;spacingRight=4;overflow=hidden;rotatable=0;points=[[0,0.5],[1,0.5]];portConstraint=eastwest;rounded=0;shadow=0;html=0;" vertex="1" parent="N3ArxVO0G3h0Xi9gSyZn-108">
          <mxGeometry y="26" width="170" height="26" as="geometry" />
        </mxCell>
        <mxCell id="N3ArxVO0G3h0Xi9gSyZn-111" value="déblocage de certains achats &#xa;selon la progression ?" style="text;align=left;verticalAlign=top;spacingLeft=4;spacingRight=4;overflow=hidden;rotatable=0;points=[[0,0.5],[1,0.5]];portConstraint=eastwest;rounded=0;shadow=0;html=0;" vertex="1" parent="N3ArxVO0G3h0Xi9gSyZn-108">
          <mxGeometry y="52" width="170" height="38" as="geometry" />
        </mxCell>
        <mxCell id="N3ArxVO0G3h0Xi9gSyZn-110" value="prix changeant selon la &#xa;progression ?" style="text;align=left;verticalAlign=top;spacingLeft=4;spacingRight=4;overflow=hidden;rotatable=0;points=[[0,0.5],[1,0.5]];portConstraint=eastwest;rounded=0;shadow=0;html=0;" vertex="1" parent="N3ArxVO0G3h0Xi9gSyZn-108">
          <mxGeometry y="90" width="170" height="38" as="geometry" />
        </mxCell>
        <mxCell id="N3ArxVO0G3h0Xi9gSyZn-122" style="edgeStyle=orthogonalEdgeStyle;rounded=0;orthogonalLoop=1;jettySize=auto;html=1;entryX=1;entryY=0.5;entryDx=0;entryDy=0;fontFamily=Helvetica;fontSize=12;fontColor=default;" edge="1" parent="WIyWlLk6GJQsqaUBKTNV-1" source="N3ArxVO0G3h0Xi9gSyZn-112" target="N3ArxVO0G3h0Xi9gSyZn-104">
          <mxGeometry relative="1" as="geometry" />
        </mxCell>
        <mxCell id="N3ArxVO0G3h0Xi9gSyZn-112" value="Vendre" style="swimlane;fontStyle=2;align=center;verticalAlign=top;childLayout=stackLayout;horizontal=1;startSize=26;horizontalStack=0;resizeParent=1;resizeLast=0;collapsible=1;marginBottom=0;rounded=0;shadow=0;strokeWidth=1;fillColor=#f8cecc;strokeColor=#b85450;" vertex="1" parent="WIyWlLk6GJQsqaUBKTNV-1">
          <mxGeometry x="1130" y="280" width="170" height="160" as="geometry">
            <mxRectangle x="230" y="140" width="160" height="26" as="alternateBounds" />
          </mxGeometry>
        </mxCell>
        <mxCell id="N3ArxVO0G3h0Xi9gSyZn-113" value="vente unique ou par lot" style="text;align=left;verticalAlign=top;spacingLeft=4;spacingRight=4;overflow=hidden;rotatable=0;points=[[0,0.5],[1,0.5]];portConstraint=eastwest;rounded=0;shadow=0;html=0;" vertex="1" parent="N3ArxVO0G3h0Xi9gSyZn-112">
          <mxGeometry y="26" width="170" height="26" as="geometry" />
        </mxCell>
        <mxCell id="N3ArxVO0G3h0Xi9gSyZn-114" value="déblocage de certaine vente&#xa;selon la progression ?" style="text;align=left;verticalAlign=top;spacingLeft=4;spacingRight=4;overflow=hidden;rotatable=0;points=[[0,0.5],[1,0.5]];portConstraint=eastwest;rounded=0;shadow=0;html=0;" vertex="1" parent="N3ArxVO0G3h0Xi9gSyZn-112">
          <mxGeometry y="52" width="170" height="38" as="geometry" />
        </mxCell>
        <mxCell id="N3ArxVO0G3h0Xi9gSyZn-115" value="prix changeant selon la &#xa;progression ?" style="text;align=left;verticalAlign=top;spacingLeft=4;spacingRight=4;overflow=hidden;rotatable=0;points=[[0,0.5],[1,0.5]];portConstraint=eastwest;rounded=0;shadow=0;html=0;" vertex="1" parent="N3ArxVO0G3h0Xi9gSyZn-112">
          <mxGeometry y="90" width="170" height="38" as="geometry" />
        </mxCell>
        <mxCell id="N3ArxVO0G3h0Xi9gSyZn-120" style="edgeStyle=orthogonalEdgeStyle;rounded=0;orthogonalLoop=1;jettySize=auto;html=1;entryX=1;entryY=0.5;entryDx=0;entryDy=0;fontFamily=Helvetica;fontSize=12;fontColor=default;" edge="1" parent="WIyWlLk6GJQsqaUBKTNV-1" source="N3ArxVO0G3h0Xi9gSyZn-116" target="N3ArxVO0G3h0Xi9gSyZn-105">
          <mxGeometry relative="1" as="geometry" />
        </mxCell>
        <mxCell id="N3ArxVO0G3h0Xi9gSyZn-116" value="Améliorer / Mise à Jour" style="swimlane;fontStyle=2;align=center;verticalAlign=top;childLayout=stackLayout;horizontal=1;startSize=26;horizontalStack=0;resizeParent=1;resizeLast=0;collapsible=1;marginBottom=0;rounded=0;shadow=0;strokeWidth=1;fillColor=#f8cecc;strokeColor=#b85450;" vertex="1" parent="WIyWlLk6GJQsqaUBKTNV-1">
          <mxGeometry x="1020" y="20" width="200" height="160" as="geometry">
            <mxRectangle x="230" y="140" width="160" height="26" as="alternateBounds" />
          </mxGeometry>
        </mxCell>
        <mxCell id="N3ArxVO0G3h0Xi9gSyZn-117" value="Mise à Jour de la Carte &#xa;(payant ou gratuit)" style="text;align=left;verticalAlign=top;spacingLeft=4;spacingRight=4;overflow=hidden;rotatable=0;points=[[0,0.5],[1,0.5]];portConstraint=eastwest;rounded=0;shadow=0;html=0;" vertex="1" parent="N3ArxVO0G3h0Xi9gSyZn-116">
          <mxGeometry y="26" width="200" height="44" as="geometry" />
        </mxCell>
        <mxCell id="N3ArxVO0G3h0Xi9gSyZn-118" value="Amélioration de l&#39;outil de minage&#xa;(requiert gold, materiaux, minerai...)" style="text;align=left;verticalAlign=top;spacingLeft=4;spacingRight=4;overflow=hidden;rotatable=0;points=[[0,0.5],[1,0.5]];portConstraint=eastwest;rounded=0;shadow=0;html=0;" vertex="1" parent="N3ArxVO0G3h0Xi9gSyZn-116">
          <mxGeometry y="70" width="200" height="38" as="geometry" />
        </mxCell>
        <mxCell id="N3ArxVO0G3h0Xi9gSyZn-124" value="Mine" style="swimlane;fontStyle=2;align=center;verticalAlign=top;childLayout=stackLayout;horizontal=1;startSize=26;horizontalStack=0;resizeParent=1;resizeLast=0;collapsible=1;marginBottom=0;rounded=0;shadow=0;strokeWidth=1;fillColor=#d5e8d4;strokeColor=#82b366;" vertex="1" parent="WIyWlLk6GJQsqaUBKTNV-1">
          <mxGeometry x="790" y="620" width="160" height="272" as="geometry">
            <mxRectangle x="230" y="140" width="160" height="26" as="alternateBounds" />
          </mxGeometry>
        </mxCell>
        <mxCell id="N3ArxVO0G3h0Xi9gSyZn-125" value="Minerais&#xa;" style="text;align=left;verticalAlign=top;spacingLeft=4;spacingRight=4;overflow=hidden;rotatable=0;points=[[0,0.5],[1,0.5]];portConstraint=eastwest;rounded=0;shadow=0;html=0;" vertex="1" parent="N3ArxVO0G3h0Xi9gSyZn-124">
          <mxGeometry y="26" width="160" height="24" as="geometry" />
        </mxCell>
        <mxCell id="N3ArxVO0G3h0Xi9gSyZn-133" value="Plusieurs types de roches" style="text;align=left;verticalAlign=top;spacingLeft=4;spacingRight=4;overflow=hidden;rotatable=0;points=[[0,0.5],[1,0.5]];portConstraint=eastwest;rounded=0;shadow=0;html=0;" vertex="1" parent="N3ArxVO0G3h0Xi9gSyZn-124">
          <mxGeometry y="50" width="160" height="24" as="geometry" />
        </mxCell>
        <mxCell id="N3ArxVO0G3h0Xi9gSyZn-130" value="Monstres" style="text;align=left;verticalAlign=top;spacingLeft=4;spacingRight=4;overflow=hidden;rotatable=0;points=[[0,0.5],[1,0.5]];portConstraint=eastwest;rounded=0;shadow=0;html=0;" vertex="1" parent="N3ArxVO0G3h0Xi9gSyZn-124">
          <mxGeometry y="74" width="160" height="24" as="geometry" />
        </mxCell>
        <mxCell id="N3ArxVO0G3h0Xi9gSyZn-131" value="Campements(checkpoint)" style="text;align=left;verticalAlign=top;spacingLeft=4;spacingRight=4;overflow=hidden;rotatable=0;points=[[0,0.5],[1,0.5]];portConstraint=eastwest;rounded=0;shadow=0;html=0;" vertex="1" parent="N3ArxVO0G3h0Xi9gSyZn-124">
          <mxGeometry y="98" width="160" height="24" as="geometry" />
        </mxCell>
        <mxCell id="N3ArxVO0G3h0Xi9gSyZn-132" value="Ruines" style="text;align=left;verticalAlign=top;spacingLeft=4;spacingRight=4;overflow=hidden;rotatable=0;points=[[0,0.5],[1,0.5]];portConstraint=eastwest;rounded=0;shadow=0;html=0;" vertex="1" parent="N3ArxVO0G3h0Xi9gSyZn-124">
          <mxGeometry y="122" width="160" height="24" as="geometry" />
        </mxCell>
        <mxCell id="N3ArxVO0G3h0Xi9gSyZn-134" value="Plantes/ Champignons ?" style="text;align=left;verticalAlign=top;spacingLeft=4;spacingRight=4;overflow=hidden;rotatable=0;points=[[0,0.5],[1,0.5]];portConstraint=eastwest;rounded=0;shadow=0;html=0;" vertex="1" parent="N3ArxVO0G3h0Xi9gSyZn-124">
          <mxGeometry y="146" width="160" height="24" as="geometry" />
        </mxCell>
        <mxCell id="N3ArxVO0G3h0Xi9gSyZn-126" value="" style="line;html=1;strokeWidth=1;align=left;verticalAlign=middle;spacingTop=-1;spacingLeft=3;spacingRight=3;rotatable=0;labelPosition=right;points=[];portConstraint=eastwest;" vertex="1" parent="N3ArxVO0G3h0Xi9gSyZn-124">
          <mxGeometry y="170" width="160" height="24" as="geometry" />
        </mxCell>
        <mxCell id="N3ArxVO0G3h0Xi9gSyZn-127" value="Combat" style="text;align=left;verticalAlign=top;spacingLeft=4;spacingRight=4;overflow=hidden;rotatable=0;points=[[0,0.5],[1,0.5]];portConstraint=eastwest;rounded=0;shadow=0;html=0;fillColor=#f8cecc;strokeColor=#b85450;" vertex="1" parent="N3ArxVO0G3h0Xi9gSyZn-124">
          <mxGeometry y="194" width="160" height="26" as="geometry" />
        </mxCell>
        <mxCell id="N3ArxVO0G3h0Xi9gSyZn-128" value="Entrer / Sortir" style="text;align=left;verticalAlign=top;spacingLeft=4;spacingRight=4;overflow=hidden;rotatable=0;points=[[0,0.5],[1,0.5]];portConstraint=eastwest;rounded=0;shadow=0;html=0;fillColor=#f8cecc;strokeColor=#b85450;" vertex="1" parent="N3ArxVO0G3h0Xi9gSyZn-124">
          <mxGeometry y="220" width="160" height="26" as="geometry" />
        </mxCell>
        <mxCell id="N3ArxVO0G3h0Xi9gSyZn-129" value="Campements / tp ?" style="text;align=left;verticalAlign=top;spacingLeft=4;spacingRight=4;overflow=hidden;rotatable=0;points=[[0,0.5],[1,0.5]];portConstraint=eastwest;rounded=0;shadow=0;html=0;fillColor=#f8cecc;strokeColor=#b85450;" vertex="1" parent="N3ArxVO0G3h0Xi9gSyZn-124">
          <mxGeometry y="246" width="160" height="26" as="geometry" />
        </mxCell>
        <mxCell id="N3ArxVO0G3h0Xi9gSyZn-135" value="Maison" style="swimlane;fontStyle=2;align=center;verticalAlign=top;childLayout=stackLayout;horizontal=1;startSize=26;horizontalStack=0;resizeParent=1;resizeLast=0;collapsible=1;marginBottom=0;rounded=0;shadow=0;strokeWidth=1;fillColor=#d5e8d4;strokeColor=#82b366;" vertex="1" parent="WIyWlLk6GJQsqaUBKTNV-1">
          <mxGeometry x="590" y="620" width="160" height="272" as="geometry">
            <mxRectangle x="230" y="140" width="160" height="26" as="alternateBounds" />
          </mxGeometry>
        </mxCell>
        <mxCell id="N3ArxVO0G3h0Xi9gSyZn-136" value="Coffre" style="text;align=left;verticalAlign=top;spacingLeft=4;spacingRight=4;overflow=hidden;rotatable=0;points=[[0,0.5],[1,0.5]];portConstraint=eastwest;rounded=0;shadow=0;html=0;" vertex="1" parent="N3ArxVO0G3h0Xi9gSyZn-135">
          <mxGeometry y="26" width="160" height="24" as="geometry" />
        </mxCell>
        <mxCell id="N3ArxVO0G3h0Xi9gSyZn-146" value="Lit" style="text;align=left;verticalAlign=top;spacingLeft=4;spacingRight=4;overflow=hidden;rotatable=0;points=[[0,0.5],[1,0.5]];portConstraint=eastwest;rounded=0;shadow=0;html=0;" vertex="1" parent="N3ArxVO0G3h0Xi9gSyZn-135">
          <mxGeometry y="50" width="160" height="24" as="geometry" />
        </mxCell>
        <mxCell id="N3ArxVO0G3h0Xi9gSyZn-147" value="Établi" style="text;align=left;verticalAlign=top;spacingLeft=4;spacingRight=4;overflow=hidden;rotatable=0;points=[[0,0.5],[1,0.5]];portConstraint=eastwest;rounded=0;shadow=0;html=0;" vertex="1" parent="N3ArxVO0G3h0Xi9gSyZn-135">
          <mxGeometry y="74" width="160" height="24" as="geometry" />
        </mxCell>
        <mxCell id="N3ArxVO0G3h0Xi9gSyZn-142" value="" style="line;html=1;strokeWidth=1;align=left;verticalAlign=middle;spacingTop=-1;spacingLeft=3;spacingRight=3;rotatable=0;labelPosition=right;points=[];portConstraint=eastwest;" vertex="1" parent="N3ArxVO0G3h0Xi9gSyZn-135">
          <mxGeometry y="98" width="160" height="24" as="geometry" />
        </mxCell>
        <mxCell id="N3ArxVO0G3h0Xi9gSyZn-143" value="Dormir (récupérer pv)" style="text;align=left;verticalAlign=top;spacingLeft=4;spacingRight=4;overflow=hidden;rotatable=0;points=[[0,0.5],[1,0.5]];portConstraint=eastwest;rounded=0;shadow=0;html=0;fillColor=#f8cecc;strokeColor=#b85450;" vertex="1" parent="N3ArxVO0G3h0Xi9gSyZn-135">
          <mxGeometry y="122" width="160" height="26" as="geometry" />
        </mxCell>
        <mxCell id="N3ArxVO0G3h0Xi9gSyZn-144" value="Entrer / Sortir" style="text;align=left;verticalAlign=top;spacingLeft=4;spacingRight=4;overflow=hidden;rotatable=0;points=[[0,0.5],[1,0.5]];portConstraint=eastwest;rounded=0;shadow=0;html=0;fillColor=#f8cecc;strokeColor=#b85450;" vertex="1" parent="N3ArxVO0G3h0Xi9gSyZn-135">
          <mxGeometry y="148" width="160" height="26" as="geometry" />
        </mxCell>
        <mxCell id="N3ArxVO0G3h0Xi9gSyZn-145" value="Réparer son équipement" style="text;align=left;verticalAlign=top;spacingLeft=4;spacingRight=4;overflow=hidden;rotatable=0;points=[[0,0.5],[1,0.5]];portConstraint=eastwest;rounded=0;shadow=0;html=0;fillColor=#f8cecc;strokeColor=#b85450;" vertex="1" parent="N3ArxVO0G3h0Xi9gSyZn-135">
          <mxGeometry y="174" width="160" height="26" as="geometry" />
        </mxCell>
        <mxCell id="N3ArxVO0G3h0Xi9gSyZn-148" value="Campement" style="swimlane;fontStyle=2;align=center;verticalAlign=top;childLayout=stackLayout;horizontal=1;startSize=26;horizontalStack=0;resizeParent=1;resizeLast=0;collapsible=1;marginBottom=0;rounded=0;shadow=0;strokeWidth=1;fillColor=#d5e8d4;strokeColor=#82b366;" vertex="1" parent="WIyWlLk6GJQsqaUBKTNV-1">
          <mxGeometry x="980" y="620" width="160" height="272" as="geometry">
            <mxRectangle x="230" y="140" width="160" height="26" as="alternateBounds" />
          </mxGeometry>
        </mxCell>
        <mxCell id="N3ArxVO0G3h0Xi9gSyZn-149" value="Coffre" style="text;align=left;verticalAlign=top;spacingLeft=4;spacingRight=4;overflow=hidden;rotatable=0;points=[[0,0.5],[1,0.5]];portConstraint=eastwest;rounded=0;shadow=0;html=0;" vertex="1" parent="N3ArxVO0G3h0Xi9gSyZn-148">
          <mxGeometry y="26" width="160" height="24" as="geometry" />
        </mxCell>
        <mxCell id="N3ArxVO0G3h0Xi9gSyZn-150" value="Lit" style="text;align=left;verticalAlign=top;spacingLeft=4;spacingRight=4;overflow=hidden;rotatable=0;points=[[0,0.5],[1,0.5]];portConstraint=eastwest;rounded=0;shadow=0;html=0;" vertex="1" parent="N3ArxVO0G3h0Xi9gSyZn-148">
          <mxGeometry y="50" width="160" height="24" as="geometry" />
        </mxCell>
        <mxCell id="N3ArxVO0G3h0Xi9gSyZn-152" value="" style="line;html=1;strokeWidth=1;align=left;verticalAlign=middle;spacingTop=-1;spacingLeft=3;spacingRight=3;rotatable=0;labelPosition=right;points=[];portConstraint=eastwest;" vertex="1" parent="N3ArxVO0G3h0Xi9gSyZn-148">
          <mxGeometry y="74" width="160" height="24" as="geometry" />
        </mxCell>
        <mxCell id="N3ArxVO0G3h0Xi9gSyZn-153" value="Dormir (récupérer pv)" style="text;align=left;verticalAlign=top;spacingLeft=4;spacingRight=4;overflow=hidden;rotatable=0;points=[[0,0.5],[1,0.5]];portConstraint=eastwest;rounded=0;shadow=0;html=0;fillColor=#f8cecc;strokeColor=#b85450;" vertex="1" parent="N3ArxVO0G3h0Xi9gSyZn-148">
          <mxGeometry y="98" width="160" height="26" as="geometry" />
        </mxCell>
      </root>
    </mxGraphModel>
  </diagram>
</mxfile>
